Project Classic_Shop {
  database_type: 'PostgreSQL'
  Note: '''
    # CShop Database
  '''
}

/// Creating tables
// ADMIN
Table admin_type as ADT{
  id bigserial [pk, not null, ref: < AD.type_id]// auto-increment
  admin_type varchar [not null, unique]
  created_at timestamptz [not null, default: `now()`]
  updated_at timestamptz [not null, default: '0001-01-01 00:00:00Z']
}

Table admin as AD {
  id bigserial [pk,not null]// auto-increment
  username varchar [not null, unique]
  email varchar [not null, unique]
  password varchar [not null]
  type_id bigint [not null]
  created_at timestamptz [not null, default: `now()`]
  updated_at timestamptz [not null, default: '0001-01-01 00:00:00Z']
  last_login timestamptz [not null, default: '0001-01-01 00:00:00Z']
  active boolean [not null, default: true] // 1-byte
}

Table admin_session as ADS {
  id uuid [pk, not null, unique]
  admin_id bigint [not null,ref:> AD.id]
  refresh_token varchar [not null]
  admin_agent varchar [not null]
  client_ip varchar [not null]
  created_at timestamptz [not null, default: `now()`]
  updated_at timestamptz [not null, default: '0001-01-01 00:00:00Z']
  expires_at timestamptz [not null]
  is_blocked boolean [not null, default: false] // 1-byte
}

// USER 
Table user as U {
  id bigserial [pk,not null]// auto-increment
  username varchar [not null]
  email varchar [not null, unique]
  password varchar [not null]
  // telephone int [not null, default: 0]
  default_payment bigint
  default_address_id bigint [null]
  created_at timestamptz [not null, default: `now()`]
  updated_at timestamptz [not null, default: '0001-01-01 00:00:00Z']
  is_blocked boolean [not null, default: false] // 1-byte
  is_email_verified boolean [not null, default: false] // 1-byte
  
  indexes {
    username
    email
    // telephone
  }
}

Ref: U.default_address_id > A.id [delete: set null]

Table verify_email as VE {
  id bigserial [pk]
  user_id bigint
  // email varchar [not null]
  secret_code varchar [not null]
  created_at timestamptz [not null, default: `now()`]
  expired_at timestamptz [not null, default: `now() + interval '15 minutes'`]
  is_used bool [not null, default: false] // 1-byte
}

Ref: VE.user_id > U.id [delete: set null]

Table reset_passwords as RP {
  id bigserial [pk]
  user_id bigint [ref: > U.id, not null]
  // email varchar [not null]
  secret_code varchar [not null]
  created_at timestamptz [not null, default: `now()`]
  updated_at timestamptz [not null, default: '0001-01-01 00:00:00Z']
  expired_at timestamptz [not null, default: `now() + interval '15 minutes'`]
  is_used bool [not null, default: false] // 1-byte
}

Table user_session as US {
  id uuid [pk, not null, unique]
  user_id bigint [not null,ref:> U.id]
  refresh_token varchar [not null]
  user_agent varchar [not null]
  client_ip varchar [not null]
  created_at timestamptz [not null, default: `now()`]
  updated_at timestamptz [not null, default: '0001-01-01 00:00:00Z']
  expires_at timestamptz [not null]
  is_blocked boolean [not null, default: false] // 1-byte
}

Table notification as N {
  user_id bigint [not null, unique, ref:> U.id]
  device_id varchar
  fcm_token varchar
  created_at timestamptz [not null, default: `now()`]
  updated_at timestamptz [not null, default: '0001-01-01 00:00:00Z'] 
  delivery_updates boolean [not null, default: true] // 1-byte
}

Table app_policy as AP {
  id bigserial [pk]
  policy varchar
  created_at timestamptz [not null, default: `now()`]
  updated_at timestamptz [not null, default: '0001-01-01 00:00:00Z'] 
}

Table address as A {
  id bigserial [pk,not null] // auto-increment
  user_id bigint [not null, ref:> U.id]
  name varchar [not null]
  telephone varchar [not null]
  address_line varchar [not null]
  region varchar [not null]
  city varchar [not null]
  created_at timestamptz [not null, default: `now()`]
  updated_at timestamptz [not null, default: '0001-01-01 00:00:00Z']
}

Table user_review as UR {
  id bigserial [pk,not null] // auto-increment
  user_id bigint [not null,ref:> U.id]
  ordered_product_id bigint [not null,unique,ref:> SOI.id]
  created_at timestamptz [not null, default: `now()`]
  updated_at timestamptz [not null, default: '0001-01-01 00:00:00Z']
  rating_value int [not null, default: 0] // 4-byte
}

Table payment_method as PM {
  id bigserial [pk,not null] // auto-increment
  user_id bigint [not null,ref:> U.id]
  payment_type_id bigint [not null, ref:> PT.id]
  provider varchar [not null]
  is_default boolean [not null, default: false] // 1-byte
}

Table payment_type as PT {
  id bigserial [pk,not null] // auto-increment
  value varchar [not null, unique, note:'for companies payment system like BCD']
  is_active boolean [not null, default: true] // 1-byte
}

Table shopping_cart as SC {
  id bigserial [pk,not null] // auto-increment
  user_id bigint [not null,ref:> U.id]
  created_at timestamptz [not null, default: `now()`]
  updated_at timestamptz [not null, default: '0001-01-01 00:00:00Z']
}

Table shopping_cart_item as SCI {
  id bigserial [pk,not null] // auto-increment
  shopping_cart_id bigint [not null, ref:> SC.id]
  product_item_id bigint [not null, ref:> PI.id]
  size_id bigint [not null]
  created_at timestamptz [not null, default: `now()`]
  updated_at timestamptz [not null, default: '0001-01-01 00:00:00Z']
  qty int [not null] // 4-byte
}

Table wish_list as WL {
  id bigserial [pk,not null] // auto-increment
  user_id bigint [not null,ref:> U.id]
  created_at timestamptz [not null, default: `now()`]
  updated_at timestamptz [not null, default: '0001-01-01 00:00:00Z']
}

Table wish_list_item as WLI {
  id bigserial [pk,not null] // auto-increment
  wish_list_id bigint [not null, ref:> WL.id]
  product_item_id bigint [not null,ref:> PI.id]
  size_id bigint [not null]
  created_at timestamptz [not null, default: `now()`]
  updated_at timestamptz [not null, default: '0001-01-01 00:00:00Z']
}

// this table is for items in the ship_order
Table shop_order_item as SOI {
  id bigserial [pk,not null] // auto-increment
  product_item_id bigint [not null,ref:> PI.id]
  order_id bigint [not null, ref:> SO.id]
  price varchar [not null, note:'price of product when ordered']
  shipping_method_price varchar [not null, note:'shipping method price when the order was made']
  created_at timestamptz [not null, default: `now()`]
  updated_at timestamptz [not null, default: '0001-01-01 00:00:00Z']
  quantity int [not null, default: 0] // 4-byte
  discount int [not null, default: 0,note:'discount of product when ordered'] // 4-byte
}

Table featured_product_item as FPI {
  id bigserial [pk, not null]
  product_item_id bigint [not null, ref: > PI.id]
  start_date timestamptz [not null, default: 'now()']
  end_date timestamptz [not null]
  priority int [default: 0] // 4-byte
  active boolean [not null, default: false] // 1-byte
}

Table product_item as PI {
  id bigserial [pk,not null] // auto-increment
  product_id bigint [not null, ref:> P.id]
  // size_id bigint [not null, ref:> PS.id]
  image_id bigint [not null, ref:> PIMG.id]
  color_id bigint [not null, ref:> PCLR.id]
  // qty_in_stock int [not null]
  price varchar [not null]
  created_at timestamptz [not null, default: `now()`]
  updated_at timestamptz [not null, default: '0001-01-01 00:00:00Z']
  product_sku bigint [not null] // This is a BIGINT, 8-byte, but was already near the end. Keeping order of BIGINTs before 4-byte INTs.
  active boolean [not null, default: false, note:'default is false'] // 1-byte
}

Table product as P {
  id bigserial [pk,not null] // auto-increment
  category_id bigint [not null,ref:> PC.id]
  brand_id bigint [not null,ref:> PB.id]
  name varchar [not null]
  description varchar [not null]
  created_at timestamptz [not null, default: `now()`]
  updated_at timestamptz [not null, default: '0001-01-01 00:00:00Z']
  active boolean [not null, default: false, note:'default is false'] // 1-byte
}

Table product_size as PS {
  id bigserial [pk,not null] // auto-increment
  product_item_id bigint [not null, ref: > PI.id] 
  size_value varchar [not null]
  qty int [not null, default: 0] // 4-byte
}

Table product_color as PCLR {
  id bigserial [pk,not null] // auto-increment
  color_value varchar [not null]
}

Table product_image as PIMG {
  id bigserial [pk,not null] // auto-increment
  product_image_1 varchar [not null]
  product_image_2 varchar [not null]
  product_image_3 varchar [not null]
}

Table product_promotion as PPROMO {
  product_id bigint [not null,ref:> P.id]
  promotion_id bigint [not null,ref:> PROMO.id]
  product_promotion_image varchar
  active boolean [not null, default: false, note:'default is false'] // 1-byte

  indexes {
  (product_id, promotion_id) [unique]
  }
}

Table product_category as PC {
  id bigserial [pk,not null] // auto-increment
  parent_category_id bigint [ref:> PC.id]
  category_name varchar [not null, unique]
  category_image varchar [not null]
}

Table product_brand as PB {
  id bigserial [pk,not null] // auto-increment
  brand_name varchar [not null, unique]
  brand_image varchar [not null]
}

Table home_page_text_banner as HPTB {
  id bigserial [pk,not null] // auto-increment
  name varchar [not null, unique]
  description varchar [not null]
  created_at timestamptz [not null, default: `now()`]
  updated_at timestamptz [not null, default: '0001-01-01 00:00:00Z']
  active boolean [not null, default: false, note:'default is false'] // 1-byte
}

Table promotion as PROMO {
  id bigserial [pk,not null] // auto-increment
  name varchar [not null]
  description varchar [not null]
  discount_rate bigint [not null]
  start_date timestamptz [not null]
  end_date timestamptz [not null]
  active boolean [not null, default: false, note:'default is false'] // 1-byte
}

Table category_promotion as CPROMO {
  category_id bigint [not null, unique,ref:> PC.id]
  promotion_id bigint [not null, unique, ref:> PROMO.id]
  category_promotion_image varchar
  active boolean [not null, default: false, note:'default is false'] // 1-byte

  indexes {
  (category_id, promotion_id) [unique]
  }
}

Table brand_promotion as BPROMO {
  brand_id bigint [not null, unique,ref:> PB.id]
  promotion_id bigint [not null, unique, ref:> PROMO.id]
  brand_promotion_image varchar
  active boolean [not null, default: false, note:'default is false'] // 1-byte

  indexes {
    (brand_id, promotion_id) [unique]
  }
}

Table variation as V {
  id bigserial [pk,not null] // auto-increment
  category_id bigint [not null, ref:> PC.id]
  name varchar [not null,note:'variation names like color, and size']
}

Table variation_option as VO {
  id bigserial [pk,not null] // auto-increment
  variation_id bigint 
  value varchar [not null,note:'variation values like Red, ans Size XL']
}
Ref: VO.variation_id > V.id [delete: set null]

Table product_configuration as PCFG {
  product_item_id bigint [not null,ref:> PI.id]
  variation_option_id bigint [not null,ref:> VO.id]
}

Table shop_order as SO {
  id bigserial [pk,not null] // auto-increment
  track_number varchar [not null]
  user_id bigint [not null]
  payment_type_id bigint [not null]
  shipping_address_id bigint
  order_total varchar [not null]
  shipping_method_id bigint [not null, ref:> SM.id]
  order_status_id bigint
  address_name varchar [not null]
  address_telephone varchar [not null]
  address_line varchar [not null]
  address_region varchar [not null]
  address_city varchar [not null]
  created_at timestamptz [not null, default: `now()`]
  updated_at timestamptz [not null, default: '0001-01-01 00:00:00Z']
  completed_at timestamptz [not null, default: '0001-01-01 00:00:00Z']
  order_number int [not null] // 4-byte
}
Ref: SO.order_status_id > OS.id [delete: set null]

Table order_status as OS {
  id bigserial [pk,not null] // auto-increment
  status varchar [not null, unique, note:'values like ordered, processed and delivered']
  created_at timestamptz [not null, default: `now()`]
  updated_at timestamptz [not null, default: '0001-01-01 00:00:00Z']
}

Table shipping_method as SM {
  id bigserial [pk,not null] // auto-increment
  name varchar [not null, unique, note:'values like normal, or free']
  price varchar [not null]
}